<svg width="188" height="18" fill="none" xmlns="http://www.w3.org/2000/svg"><path d="M172.404 4.305h1.291c.623 0 1.235.167 1.235.866 0 .32-.18.599-.383.725.285.127.514.346.514.796 0 .733-.581 1.008-1.283 1.008h-1.377V4.305h.003zm.601 1.42h.747c.356 0 .566-.148.566-.487 0-.301-.225-.453-.566-.453h-.747v.94zm0 1.503h.799c.432 0 .638-.194.638-.528 0-.354-.214-.517-.672-.517h-.765v1.045zm2.856-2.923h2.427v.498h-1.827v.911h1.726v.491h-1.726v.997h1.827v.502h-2.427v-3.4zm3.981.498h-1.077v-.498h2.758v.498h-1.077v2.9h-.6v-2.9h-.004zm2.315-.498h2.428v.498h-1.827v.911h1.726v.491h-1.726v.997h1.827v.502h-2.428v-3.4zm4.387 0c.751 0 1.456.119 1.456 1.067 0 .86-.638 1.045-1.448 1.045h-.541V7.7h-.6V4.305h1.133zm-.529.48v1.149h.559c.454 0 .803-.067.803-.554 0-.55-.413-.595-.833-.595h-.529z" fill="#000"/><path d="M21.817 10.17v.1H15.33l-.06-.28c-.24-1.107-1.298-1.877-3.951-1.877h-.758c-2.796 0-4.372.81-4.372 2.89v.16c0 2.074 1.576 2.889 4.372 2.889h.758c2.653 0 3.711-.77 3.951-1.878l.06-.28h6.488v.101c0 4.054-3.733 6.013-10.56 6.013h-.637C3.59 18.001 0 16.063 0 11.237v-.317c0-4.827 3.591-6.764 10.62-6.764h.638c6.826 0 10.56 1.96 10.56 6.013zm1.073-5.817h17.566V8.31H28.88v1.286h9.862v2.968H28.88v1.287h11.576v3.956H22.891V4.353zm31.275 13.451H41.57V4.353h12.335c5.49 0 7.085.93 7.085 3.6v.137c0 1.187-.68 2.414-2.417 2.908 1.996.376 2.675 1.521 2.675 2.849v.138c0 2.632-1.474 3.819-7.084 3.819zM47.519 8.13v1.7h5.67c1.377 0 1.756-.238 1.756-.83v-.04c0-.595-.379-.83-1.756-.83h-5.67zm7.685 4.987c0-.595-.379-.87-1.756-.87h-5.93v1.781h5.93c1.377 0 1.756-.279 1.756-.87v-.04zm7.021-8.764h17.566V8.31H68.214v1.286h9.862v2.968h-9.862v1.287h11.577v3.956H62.225V4.353zM93.06 14.364h-6.17v3.44h-5.984V4.353H93.06c4.65 0 6.965 1.227 6.965 4.905v.197c.004 3.682-2.312 4.909-6.965 4.909zm.98-5.024c0-.81-.6-1.03-1.637-1.03h-5.508v2.097h5.508c1.04 0 1.636-.216 1.636-1.03V9.34zm21.213 8.464v-4.708h-8.263v4.708H101V4.353h5.99v4.47h8.263v-4.47h5.989v13.45h-5.989zm26.084-5.102v.197c0 3.678-2.316 4.905-6.965 4.905h-11.854V4.353h5.989v3.44h5.869c4.645.004 6.961 1.227 6.961 4.909zm-5.986.119v-.041c0-.83-.6-1.03-1.636-1.03h-5.208v2.097h5.208c1.036 0 1.636-.197 1.636-1.026zm6.706 4.983V4.353h5.989v13.45h-5.989zm21.87-13.451l-8.822 7.597V4.353h-5.786v13.45h5.786l8.822-7.593v7.594h5.791V4.353h-5.791zm0-3.362h-8.822V2.84h8.822V.99z" fill="#24272A"/></svg>