<svg width="109" height="54" fill="none" xmlns="http://www.w3.org/2000/svg"><g clip-path="url(#clip0)" stroke-miterlimit="10" stroke-linecap="round" stroke-linejoin="round"><path d="M87.682 10.154c11.071 0 20.046-1.862 20.046-4.159 0-2.297-8.975-4.159-20.046-4.159s-20.046 1.862-20.046 4.16c0 2.296 8.975 4.158 20.046 4.158zm19.944 16.075c0 2.297-8.98 4.159-20.046 4.159-2.765 0-5.402-.118-7.802-.327" stroke="#CCC" stroke-width="3.5"/><path d="M107.669 11.882c0 2.297-8.98 4.159-20.047 4.159-3.052 0-5.944-.143-8.539-.394" stroke="#CCC" stroke-width="3"/><path d="M67.627 5.995L67.6 11.53m40.128-5.535l-.102 20.234" stroke="#CCC" stroke-width="3.5"/><path d="M40.723 5.417c0-2.298-8.833-4.16-19.721-4.16-10.889 0-19.73 1.862-19.73 4.16 0 2.297 8.833 4.159 19.721 4.159 10.889 0 19.73-1.853 19.73-4.16zM1.38 25.658c0 2.298 8.833 4.16 19.722 4.16" stroke="#010202" stroke-width="3.5"/><path d="M1.33 11.312c0 2.297 8.833 4.159 19.722 4.159" stroke="#010202" stroke-width="3"/><path d="M40.723 5.417l.025 5.048M1.272 5.417l.109 20.241" stroke="#010202" stroke-width="3.5"/><path d="M50.489 22.606c15.97 0 28.916-2.688 28.916-6.004 0-3.315-12.946-6.003-28.916-6.003s-28.916 2.688-28.916 6.003c0 3.316 12.946 6.004 28.916 6.004zm28.772 23.185c0 3.312-13.118 6.951-29.086 6.951-15.967 0-28.746-3.639-28.746-6.951" stroke="#D12B58" stroke-width="3.5"/><path d="M79.458 25.472c0 3.372-13 6.113-29.033 6.113-16.032 0-29.032-2.74-29.032-6.113m.18-8.87l-.153 29.189" stroke="#D12B58" stroke-width="3"/><path d="M79.414 16.602l-.153 29.189" stroke="#D12B58" stroke-width="3.5"/></g><defs><clipPath id="clip0"><path fill="#fff" d="M0 0h109v54H0z"/></clipPath></defs></svg>