<svg width="62" height="84" fill="none" xmlns="http://www.w3.org/2000/svg"><g clip-path="url(#clip0)" stroke="#010202" stroke-width="4" stroke-miterlimit="10" stroke-linecap="round" stroke-linejoin="round"><path d="M37.87 51.692c-3.096 7.573-13.35 10.981-17.235 10.4-3.885-.573-4.458-6.33-8.343-13.235-3.885-6.905-10.644-3.743-10.644-3.743S.478 60.197 8.35 69.347s10.596 12.2 10.596 12.2 15.086 1.927 22.315 0c7.22-1.927 14.449-9.636 16.535-15.577 2.085-5.94 2.61-21.422 2.61-21.422S57.04 29.394 43.834 10.576C40.625 6.013 35.41.62 31.072 1.744c-4.34 1.123-5.868 6.944-1.855 9.795 1.393.988 11.4 13.164 12.363 17.186.963 4.013 1.377 9.245 1.377 9.245s-4.394-2.389-9.02-4.778c-3.47-1.784-7.029-3.345-8.884-3.345-4.33 0-16.05 1.442-16.535 3.21-.485 1.768-.645 8.027 5.78 9.477 6.424 1.441 8.184-1.123 12.84.159 4.658 1.282 10.915 8.832 12.356 10.918"/><path d="M33.134 32.659s-2.882-5.646-7.277-10.982c0 0-5.7-6.53 2.11-11.245m21.805 31.895l-9.02-5.535"/></g><defs><clipPath id="clip0"><path fill="#fff" d="M0 0h62v84H0z"/></clipPath></defs></svg>