<svg width="85" height="69" fill="none" xmlns="http://www.w3.org/2000/svg"><g clip-path="url(#clip0)" stroke-width="3.5" stroke-miterlimit="10" stroke-linecap="round" stroke-linejoin="round"><path d="M83.607 54.214l-26.696 7.48-.892-47.593 26.697-7.48.891 47.593z" stroke="#010202"/><path d="M46.293 34.416l-.414-26.099 25.789-6.923M56.02 14.101L45.878 8.317M82.716 6.62L71.668 1.394m-14.758 60.3l-7.234-3.744" stroke="#010202"/><path d="M25.606 42.192c13.302 0 24.085-2.265 24.085-5.059s-10.783-5.059-24.085-5.059c-13.302 0-24.086 2.265-24.086 5.059s10.784 5.059 24.086 5.059zm23.958 19.55c0 2.797-10.928 5.864-24.229 5.864-13.3 0-23.942-3.067-23.942-5.864M49.62 44.295c0 2.796-10.785 5.059-24.086 5.059-13.3 0-24.086-2.263-24.086-5.059m.072-7.162l-.127 24.61M49.7 37.133l-.136 24.61" stroke="#14AF98"/></g><defs><clipPath id="clip0"><path fill="#fff" d="M0 0h85v69H0z"/></clipPath></defs></svg>