<svg width="91" height="101" fill="none" xmlns="http://www.w3.org/2000/svg"><g clip-path="url(#clip0)"><path d="M21.418 22.674H9.136V67.79h12.282V22.674zm18.42 10.885H27.555v34.248h12.283V33.559z" stroke="#50AD99" stroke-width="4" stroke-miterlimit="10" stroke-linecap="round" stroke-linejoin="round"/><path d="M49.907 67.832h-45v5.454h45v-5.454z" stroke="#020304" stroke-width="4" stroke-miterlimit="10" stroke-linecap="round" stroke-linejoin="round"/><path d="M89.348 99.34H75.356l.041-9.407h-11.87v9.406H1.653V73.337h87.696V99.34z" stroke="#50AD99" stroke-width="4" stroke-miterlimit="10" stroke-linecap="round" stroke-linejoin="round"/><path d="M20.691 81.024H8.367v.415h12.324v-.415zm18.205 0H26.572v.415h12.324v-.415z" stroke="#020304" stroke-width="4" stroke-miterlimit="10" stroke-linecap="round" stroke-linejoin="round"/><path d="M85.68 55.037H49.908V73.22H85.68V55.037z" stroke="#50AD99" stroke-width="4" stroke-miterlimit="10" stroke-linecap="round" stroke-linejoin="round"/><path d="M63.693 62.094h-6.55v.416h6.55v-.416zm13.942.017h-6.55v.415h6.55v-.415z" stroke="#50AD99" stroke-width="4" stroke-miterlimit="10" stroke-linecap="round" stroke-linejoin="round"/><path d="M73.869 0s-4.23 9.689-18.7 10.81c-14.472 1.12-22.575-1.096-27.92.789-5.344 1.884-8.697 3.57-11.216 6.857-2.52 3.288.933-15.716 22.425-13.117C69.524 9.083 73.868 0 73.868 0zm.727 16.132s-2.858 7.713-12.944 8.46c-10.093.747-15.768-1.112-19.477.34-3.708 1.453-6.038 2.765-7.764 5.372-1.726 2.607 1.14-12.33 15.074-10.47 17.313 2.309 25.11-3.702 25.11-3.702z" fill="#50AD99"/></g><defs><clipPath id="clip0"><path fill="#fff" d="M0 0h91v101H0z"/></clipPath></defs></svg>